#N canvas 186 106 854 623 10;
#X obj 48 147 noise~;
#X obj 49 178 *~;
#X obj 101 147 line~;
#X obj 75 -48 loadbang;
#X obj 74 42 t b b;
#X msg 101 73 0;
#X msg 65 73 1 10;
#X msg 132 99 0 10;
#X obj 132 73 del 10;
#X obj 420 79 vd~ DEL;
#X obj 238 81 vd~ DEL;
#X obj 48 211 delwrite~ DEL 1000;
#X obj 238 108 *~ 0.5;
#X obj 419 105 *~ 0.5;
#X obj 75 9 metro 98;
#X obj 238 33 *~ 10;
#X obj 239 57 +~ 15;
#X obj 424 31 *~ 10;
#X obj 421 55 +~ 15;
#X obj 238 9 osc~ 0.54;
#X obj 421 9 osc~ 0.21;
#X obj 325 219 outlet~;
#X obj 345 174 *~ 0.001;
#X connect 0 0 1 0;
#X connect 1 0 11 0;
#X connect 2 0 1 1;
#X connect 3 0 14 0;
#X connect 4 0 6 0;
#X connect 4 0 8 0;
#X connect 4 1 5 0;
#X connect 5 0 2 0;
#X connect 6 0 2 0;
#X connect 7 0 2 0;
#X connect 8 0 7 0;
#X connect 9 0 13 0;
#X connect 9 0 22 0;
#X connect 10 0 12 0;
#X connect 10 0 22 0;
#X connect 12 0 11 0;
#X connect 13 0 11 0;
#X connect 14 0 4 0;
#X connect 15 0 16 0;
#X connect 16 0 10 0;
#X connect 17 0 18 0;
#X connect 18 0 9 0;
#X connect 19 0 15 0;
#X connect 20 0 17 0;
#X connect 22 0 21 0;
