#N canvas 1477 269 488 579 10;
#X obj 185 406 +~;
#X obj 197 300 osc~;
#X obj 138 53 loadbang;
#X obj 197 275 line~;
#X obj 88 257 osc~;
#X obj 88 232 line~;
#X obj 208 148 random 200;
#X obj 89 176 + 50;
#X obj 197 228 +;
#X obj 89 122 metro 5000;
#X msg 88 208 \$1 5000;
#X obj 89 148 random 200;
#X obj 208 124 metro 500;
#X obj 143 78 bng 15 250 50 0 empty empty empty 17 7 0 10 -262144 -1
-1;
#X obj 208 173 / 100;
#X obj 185 457 outlet~;
#X obj 282 199 s FmMod;
#X obj 10 267 s FmCarrier;
#X floatatom 278 229 4 0 500 0 - - -;
#X obj 278 298 line~;
#X obj 278 252 / 100;
#X obj 278 275 pack 0 5000;
#X obj 233 336 *~;
#X msg 197 252 \$1 3000;
#X obj 185 431 hip~;
#X connect 0 0 24 0;
#X connect 1 0 22 0;
#X connect 2 0 13 0;
#X connect 3 0 1 0;
#X connect 4 0 0 0;
#X connect 5 0 4 0;
#X connect 6 0 14 0;
#X connect 7 0 10 0;
#X connect 7 0 8 1;
#X connect 7 0 17 0;
#X connect 7 0 18 0;
#X connect 8 0 23 0;
#X connect 9 0 11 0;
#X connect 10 0 5 0;
#X connect 11 0 7 0;
#X connect 12 0 6 0;
#X connect 13 0 12 0;
#X connect 13 0 9 0;
#X connect 14 0 8 0;
#X connect 14 0 16 0;
#X connect 18 0 20 0;
#X connect 19 0 22 1;
#X connect 20 0 21 0;
#X connect 21 0 19 0;
#X connect 22 0 0 1;
#X connect 23 0 3 0;
#X connect 24 0 15 0;
