#N canvas 389 294 1387 824 10;
#X obj 843 228 adc~ 1;
#X obj 187 52 loadbang;
#X obj 316 151 float;
#X msg 284 130 1;
#X obj 284 151 + 0;
#X obj 347 94 inlet;
#X obj 297 187 t f f f f f f f f f f f f;
#X obj 262 250 % 2;
#X obj 262 284 sel 1;
#X obj 302 249 % 3;
#X obj 341 248 % 4;
#X obj 381 248 % 5;
#X obj 420 248 % 6;
#X obj 459 248 % 7;
#X obj 498 248 % 8;
#X obj 537 248 % 9;
#X obj 576 248 % 10;
#X obj 304 284 sel 2;
#X obj 343 284 sel 3;
#X obj 384 283 sel 4;
#X obj 423 283 sel 5;
#X obj 461 283 sel 6;
#X obj 500 283 sel 7;
#X obj 538 283 sel 8;
#X obj 576 283 sel 9;
#X msg 347 124 0;
#X msg 188 82 1;
#X obj 291 30 r interval;
#X text 377 31 metro ticks in ms;
#X obj 569 80 s interval;
#X obj 572 56 hsl 128 15 0 380 0 0 empty empty empty -2 -8 0 10 -262144
-1 -1 0 1;
#X floatatom 291 89 4 0 0 0 - - -;
#X obj 291 59 max 50;
#X obj 254 564 clip~ -0.9 0.9;
#X obj 254 588 dac~;
#X obj 222 112 metro 140;
#X obj 529 578 s beat;
#X msg 529 532 1;
#X msg 564 531 2;
#X msg 599 532 3;
#X msg 633 532 4;
#X msg 664 533 5;
#X msg 699 533 6;
#X msg 732 532 7;
#X msg 763 533 8;
#X msg 792 532 9;
#X obj 546 657 r beat;
#X obj 546 681 nbx 5 14 -1e+37 1e+37 0 0 empty empty empty 0 -8 0 10
-262144 -1 -1 1 256;
#N canvas 1360 763 543 498 player1 0;
#X obj 123 36 inlet;
#X obj -51 356 outlet~;
#X obj -6 285 line~;
#X obj 187 79 t f b;
#X obj -51 327 *~;
#X msg 187 165 1 10;
#X obj 255 120 del 10;
#X msg 254 162 0 50;
#X obj -45 31 inlet~;
#X connect 0 0 3 0;
#X connect 2 0 4 1;
#X connect 3 0 5 0;
#X connect 3 1 6 0;
#X connect 4 0 1 0;
#X connect 5 0 2 0;
#X connect 6 0 7 0;
#X connect 7 0 2 0;
#X connect 8 0 4 0;
#X restore 254 409 pd player1;
#N canvas 1456 733 819 406 player2 0;
#X obj 486 26 inlet;
#X obj 312 346 outlet~;
#X obj 357 275 line~;
#X obj 550 69 t f b;
#X obj 312 317 *~;
#X msg 617 152 0 50;
#X msg 550 155 1 20;
#X obj 619 111 del 20;
#X obj 318 21 inlet~;
#X connect 0 0 3 0;
#X connect 2 0 4 1;
#X connect 3 0 6 0;
#X connect 3 1 7 0;
#X connect 4 0 1 0;
#X connect 5 0 2 0;
#X connect 6 0 2 0;
#X connect 7 0 5 0;
#X connect 8 0 4 0;
#X restore 318 409 pd player2;
#N canvas 1360 763 543 498 player3 0;
#X obj 123 36 inlet;
#X obj -51 356 outlet~;
#X obj -6 285 line~;
#X obj 187 79 t f b;
#X obj -51 327 *~;
#X msg 187 165 1 20;
#X obj 255 120 del 20;
#X msg 254 162 0 100;
#X obj -45 31 inlet~;
#X connect 0 0 3 0;
#X connect 2 0 4 1;
#X connect 3 0 5 0;
#X connect 3 1 6 0;
#X connect 4 0 1 0;
#X connect 5 0 2 0;
#X connect 6 0 7 0;
#X connect 7 0 2 0;
#X connect 8 0 4 0;
#X restore 381 409 pd player3;
#N canvas 1360 763 543 498 player4 0;
#X obj 123 36 inlet;
#X obj -51 356 outlet~;
#X obj -6 285 line~;
#X obj 187 79 t f b;
#X obj -51 327 *~;
#X msg 187 165 1 30;
#X obj 255 120 del 30;
#X msg 254 162 0 100;
#X obj -45 31 inlet~;
#X connect 0 0 3 0;
#X connect 2 0 4 1;
#X connect 3 0 5 0;
#X connect 3 1 6 0;
#X connect 4 0 1 0;
#X connect 5 0 2 0;
#X connect 6 0 7 0;
#X connect 7 0 2 0;
#X connect 8 0 4 0;
#X restore 444 410 pd player4;
#N canvas 1456 733 819 406 player5 0;
#X obj 486 26 inlet;
#X obj 312 346 outlet~;
#X obj 357 275 line~;
#X obj 550 69 t f b;
#X obj 312 317 *~;
#X msg 550 155 1 50;
#X obj 619 111 del 50;
#X msg 617 152 0 100;
#X obj 318 21 inlet~;
#X connect 0 0 3 0;
#X connect 2 0 4 1;
#X connect 3 0 5 0;
#X connect 3 1 6 0;
#X connect 4 0 1 0;
#X connect 5 0 2 0;
#X connect 6 0 7 0;
#X connect 7 0 2 0;
#X connect 8 0 4 0;
#X restore 508 410 pd player5;
#N canvas 1721 798 543 498 player6 0;
#X obj 123 36 inlet;
#X obj -51 356 outlet~;
#X obj -6 285 line~;
#X obj 187 79 t f b;
#X obj -51 327 *~;
#X msg 187 165 1 100;
#X obj 255 120 del 100;
#X msg 254 162 0 100;
#X obj -45 31 inlet~;
#X connect 0 0 3 0;
#X connect 2 0 4 1;
#X connect 3 0 5 0;
#X connect 3 1 6 0;
#X connect 4 0 1 0;
#X connect 5 0 2 0;
#X connect 6 0 7 0;
#X connect 7 0 2 0;
#X connect 8 0 4 0;
#X restore 571 410 pd player6;
#N canvas 1867 745 543 498 player7 0;
#X obj 123 36 inlet;
#X obj -51 356 outlet~;
#X obj -6 285 line~;
#X obj 187 79 t f b;
#X obj -51 327 *~;
#X msg 187 165 1 20;
#X obj 255 120 del 20;
#X msg 254 162 0 200;
#X obj -45 31 inlet~;
#X connect 0 0 3 0;
#X connect 2 0 4 1;
#X connect 3 0 5 0;
#X connect 3 1 6 0;
#X connect 4 0 1 0;
#X connect 5 0 2 0;
#X connect 6 0 7 0;
#X connect 7 0 2 0;
#X connect 8 0 4 0;
#X restore 635 411 pd player7;
#N canvas 1456 733 819 406 player8 0;
#X obj 486 26 inlet;
#X obj 312 346 outlet~;
#X obj 357 275 line~;
#X obj 550 69 t f b;
#X obj 312 317 *~;
#X msg 550 155 1 250;
#X obj 619 111 del 250;
#X msg 617 152 0 250;
#X obj 318 21 inlet~;
#X connect 0 0 3 0;
#X connect 2 0 4 1;
#X connect 3 0 5 0;
#X connect 3 1 6 0;
#X connect 4 0 1 0;
#X connect 5 0 2 0;
#X connect 6 0 7 0;
#X connect 7 0 2 0;
#X connect 8 0 4 0;
#X restore 699 411 pd player8;
#N canvas 1360 763 543 498 player9 0;
#X obj 123 36 inlet;
#X obj -51 356 outlet~;
#X obj -6 285 line~;
#X obj 187 79 t f b;
#X obj -51 327 *~;
#X msg 187 165 1 10;
#X obj 255 120 del 10;
#X msg 254 162 0 1000;
#X obj -45 31 inlet~;
#X connect 0 0 3 0;
#X connect 2 0 4 1;
#X connect 3 0 5 0;
#X connect 3 1 6 0;
#X connect 4 0 1 0;
#X connect 5 0 2 0;
#X connect 6 0 7 0;
#X connect 7 0 2 0;
#X connect 8 0 4 0;
#X restore 762 411 pd player9;
#X connect 0 0 48 0;
#X connect 0 0 49 0;
#X connect 0 0 50 0;
#X connect 0 0 51 0;
#X connect 0 0 52 0;
#X connect 0 0 53 0;
#X connect 0 0 54 0;
#X connect 0 0 55 0;
#X connect 0 0 56 0;
#X connect 1 0 26 0;
#X connect 2 0 4 1;
#X connect 3 0 4 0;
#X connect 4 0 2 0;
#X connect 4 0 6 0;
#X connect 5 0 25 0;
#X connect 6 1 7 0;
#X connect 6 2 9 0;
#X connect 6 3 10 0;
#X connect 6 4 11 0;
#X connect 6 5 12 0;
#X connect 6 6 13 0;
#X connect 6 7 14 0;
#X connect 6 9 15 0;
#X connect 6 10 16 0;
#X connect 7 0 8 0;
#X connect 8 0 48 1;
#X connect 8 0 37 0;
#X connect 9 0 17 0;
#X connect 10 0 18 0;
#X connect 11 0 19 0;
#X connect 12 0 20 0;
#X connect 13 0 21 0;
#X connect 14 0 22 0;
#X connect 15 0 23 0;
#X connect 16 0 24 0;
#X connect 17 0 49 1;
#X connect 17 0 38 0;
#X connect 18 0 50 1;
#X connect 18 0 39 0;
#X connect 19 0 51 1;
#X connect 19 0 40 0;
#X connect 20 0 52 1;
#X connect 20 0 41 0;
#X connect 21 0 53 1;
#X connect 21 0 42 0;
#X connect 22 0 54 1;
#X connect 22 0 43 0;
#X connect 23 0 55 1;
#X connect 23 0 44 0;
#X connect 24 0 56 1;
#X connect 24 0 45 0;
#X connect 25 0 2 1;
#X connect 26 0 35 0;
#X connect 27 0 32 0;
#X connect 30 0 29 0;
#X connect 31 0 35 1;
#X connect 32 0 31 0;
#X connect 33 0 34 0;
#X connect 33 0 34 1;
#X connect 35 0 3 0;
#X connect 37 0 36 0;
#X connect 38 0 36 0;
#X connect 39 0 36 0;
#X connect 40 0 36 0;
#X connect 41 0 36 0;
#X connect 42 0 36 0;
#X connect 43 0 36 0;
#X connect 44 0 36 0;
#X connect 45 0 36 0;
#X connect 46 0 47 0;
#X connect 48 0 33 0;
#X connect 49 0 33 0;
#X connect 50 0 33 0;
#X connect 51 0 33 0;
#X connect 52 0 33 0;
#X connect 53 0 33 0;
#X connect 54 0 33 0;
#X connect 55 0 33 0;
#X connect 56 0 33 0;
