#N canvas 53 54 1387 824 10;
#X obj 843 228 adc~ 1;
#X obj 187 52 loadbang;
#X obj 316 151 float;
#X msg 284 130 1;
#X obj 284 151 + 0;
#X obj 347 94 inlet;
#X obj 297 187 t f f f f f f f f f f f f;
#X obj 262 250 % 2;
#X obj 262 284 sel 1;
#X obj 302 249 % 3;
#X obj 341 248 % 4;
#X obj 381 248 % 5;
#X obj 420 248 % 6;
#X obj 459 248 % 7;
#X obj 498 248 % 8;
#X obj 537 248 % 9;
#X obj 576 248 % 10;
#X obj 304 284 sel 2;
#X obj 343 284 sel 3;
#X obj 384 283 sel 4;
#X obj 423 283 sel 5;
#X obj 461 283 sel 6;
#X obj 500 283 sel 7;
#X obj 538 283 sel 8;
#X obj 576 283 sel 9;
#X msg 347 124 0;
#X msg 188 82 1;
#X obj 291 30 r interval;
#X text 377 31 metro ticks in ms;
#X obj 569 80 s interval;
#X obj 572 56 hsl 128 15 0 380 0 0 empty empty empty -2 -8 0 10 -262144
-1 -1 0 1;
#X obj 222 112 metro 500;
#X floatatom 291 89 4 0 0 0 - - -, f 4;
#X obj 291 59 max 50;
#X obj 254 564 clip~ -0.9 0.9;
#X obj 254 588 dac~ 1;
#X connect 0 0 34 0;
#X connect 1 0 26 0;
#X connect 2 0 4 1;
#X connect 3 0 4 0;
#X connect 4 0 2 0;
#X connect 4 0 6 0;
#X connect 5 0 25 0;
#X connect 6 1 7 0;
#X connect 6 2 9 0;
#X connect 6 3 10 0;
#X connect 6 4 11 0;
#X connect 6 5 12 0;
#X connect 6 6 13 0;
#X connect 6 7 14 0;
#X connect 6 9 15 0;
#X connect 6 10 16 0;
#X connect 7 0 8 0;
#X connect 9 0 17 0;
#X connect 10 0 18 0;
#X connect 11 0 19 0;
#X connect 12 0 20 0;
#X connect 13 0 21 0;
#X connect 14 0 22 0;
#X connect 15 0 23 0;
#X connect 16 0 24 0;
#X connect 25 0 2 1;
#X connect 26 0 31 0;
#X connect 27 0 33 0;
#X connect 30 0 29 0;
#X connect 31 0 3 0;
#X connect 32 0 31 1;
#X connect 33 0 32 0;
#X connect 34 0 35 0;
