#N canvas 1022 446 450 300 12;
#X obj 155 200 *~ 2;
#X obj 155 227 clip~ -1 1;
#X obj 155 255 outlet~;
#X obj 155 176 phasor~ 10;
#X obj 155 147 r SquareFreq;
#X connect 0 0 1 0;
#X connect 1 0 2 0;
#X connect 3 0 0 0;
#X connect 4 0 3 0;
