#N canvas 732 667 450 300 10;
#X obj 54 33 adc~ 1;
#N canvas 1061 792 450 300 guts 0;
#X obj 77 38 inlet~;
#X obj 74 204 outlet~;
#X obj 95 129 *~ 0.5;
#X obj 170 51 random 100;
#X obj 149 90 / 100;
#X obj 177 31 inlet;
#X connect 0 0 2 0;
#X connect 2 0 1 0;
#X connect 3 0 4 0;
#X connect 4 0 2 1;
#X connect 5 0 3 0;
#X restore 86 116 pd guts;
#X obj 145 24 loadbang;
#X msg 146 55 1;
#X obj 70 180 dac~ 1;
#X obj 147 82 metro 500;
#X text 147 117 randomly varies the output leval;
#X connect 0 0 1 0;
#X connect 1 0 4 0;
#X connect 2 0 3 0;
#X connect 3 0 5 0;
#X connect 5 0 1 1;
